<?xml version="1.0" standalone="no"?>
<!DOCTYPE svg PUBLIC "-//W3C//DTD SVG 20010904//EN"
 "http://www.w3.org/TR/2001/REC-SVG-20010904/DTD/svg10.dtd">
<svg version="1.0" xmlns="http://www.w3.org/2000/svg"
 width="928.000000pt" height="928.000000pt" viewBox="0 0 928.000000 928.000000"
 preserveAspectRatio="xMidYMid meet">
<g transform="translate(0.000000,928.000000) scale(0.100000,-0.100000)"
fill="#000000" stroke="none">
<path d="M2141 8922 c-62 -42 -120 -82 -130 -87 -56 -35 -207 -140 -213 -149
-4 -6 -8 -7 -8 -3 0 7 -65 -38 -107 -73 -7 -5 -15 -10 -18 -10 -7 0 -126 -80
-135 -91 -3 -3 -26 -18 -52 -33 -50 -29 -58 -45 -33 -66 8 -7 15 -17 15 -22 0
-5 7 -16 16 -25 8 -9 38 -49 65 -90 32 -47 54 -71 62 -66 49 29 373 250 375
256 2 4 8 7 13 7 5 0 40 23 79 50 39 28 74 50 79 50 5 0 11 4 13 8 2 4 62 47
135 96 l132 89 -31 46 c-35 51 -138 191 -141 191 -1 0 -53 -35 -116 -78z"/>
<path d="M7403 8793 c-38 -60 -73 -113 -77 -120 -4 -7 16 -27 51 -52 32 -22
63 -44 68 -48 6 -5 51 -35 100 -67 50 -32 92 -63 93 -68 2 -4 8 -8 12 -8 5 0
54 -31 109 -70 55 -38 105 -70 110 -70 5 0 11 -4 13 -8 4 -11 227 -162 238
-162 4 0 23 24 41 53 18 28 39 56 46 60 7 4 13 13 13 18 0 6 12 26 27 46 l27
35 -21 17 c-30 23 -42 32 -318 225 -137 96 -255 179 -262 185 -7 6 -16 11 -22
11 -5 0 -11 4 -13 8 -1 4 -32 28 -68 52 -36 25 -71 51 -78 58 -7 6 -15 12 -16
12 -2 0 -35 -48 -73 -107z"/>
<path d="M3239 8865 c-78 -17 -178 -58 -272 -111 -45 -26 -98 -55 -117 -66
-19 -11 -43 -27 -52 -36 -10 -8 -18 -11 -18 -6 0 5 -4 4 -8 -1 -4 -6 -47 -35
-97 -64 -49 -30 -168 -103 -263 -163 -94 -59 -175 -108 -177 -108 -3 0 -11 -5
-18 -10 -15 -14 -577 -368 -597 -377 -8 -3 -47 -28 -87 -55 -40 -26 -74 -48
-77 -48 -2 0 -37 -22 -78 -50 -40 -27 -79 -50 -85 -50 -7 0 -13 -3 -13 -8 0
-4 -20 -18 -45 -32 -25 -14 -45 -28 -45 -31 0 -4 -8 -9 -17 -12 -19 -6 -65
-33 -92 -54 -51 -39 -62 -50 -65 -68 -2 -11 -41 -130 -86 -265 -46 -135 -83
-251 -83 -257 0 -7 -4 -13 -9 -13 -4 0 -7 -3 -6 -7 1 -5 -4 -25 -11 -46 -7
-21 -14 -44 -15 -50 -2 -7 -6 -21 -10 -32 -5 -11 -14 -36 -21 -56 -8 -20 -11
-39 -8 -43 4 -3 0 -6 -7 -6 -7 0 -11 -3 -8 -6 3 -3 -11 -53 -32 -112 -21 -59
-38 -109 -38 -112 0 -3 -3 -12 -6 -20 -30 -84 -129 -390 -132 -407 -4 -19 0
-23 23 -24 31 -1 95 -6 163 -14 25 -3 70 -7 100 -10 30 -2 72 -6 94 -9 21 -3
73 -8 115 -12 42 -3 92 -8 111 -10 19 -2 57 -6 85 -9 27 -2 77 -7 110 -11 33
-3 76 -8 95 -9 19 -2 67 -6 105 -10 39 -4 88 -8 110 -10 94 -9 143 -14 195
-20 30 -4 78 -9 105 -11 28 -2 72 -6 99 -9 37 -5 58 -1 83 12 18 10 33 21 33
25 0 5 4 8 10 8 5 0 82 45 170 100 89 55 165 100 170 100 5 0 10 4 12 8 2 5
41 32 88 60 104 64 111 68 180 112 30 19 67 41 81 50 14 8 48 28 75 45 27 16
51 33 52 37 2 4 8 8 14 8 6 0 26 11 44 25 18 14 35 25 38 25 3 0 57 34 121 75
63 41 120 75 125 75 6 0 10 5 10 10 0 6 5 10 10 10 6 0 16 5 23 10 7 6 66 45
132 86 328 208 642 424 703 485 122 120 159 269 117 479 -3 14 -41 87 -51 98
-7 6 -16 21 -19 32 -3 11 -11 20 -16 20 -5 0 -9 4 -9 8 0 5 -28 50 -62 102
-35 51 -71 107 -82 124 -10 17 -21 33 -25 36 -3 3 -10 12 -16 21 -21 34 -101
147 -157 222 -32 43 -58 80 -58 83 0 3 -10 16 -22 29 -13 13 -34 39 -48 56
-135 174 -245 257 -365 277 -73 12 -105 12 -176 -3z"/>
<path d="M6273 8814 c-35 -7 -76 -21 -93 -30 -32 -20 -246 -236 -295 -298 -16
-21 -51 -66 -77 -100 -27 -33 -51 -65 -56 -71 -4 -5 -23 -32 -42 -60 -18 -27
-38 -53 -44 -57 -6 -4 -7 -8 -3 -8 4 0 -3 -15 -16 -32 -62 -84 -268 -458 -251
-458 3 0 2 -6 -4 -12 -9 -12 -17 -47 -29 -128 -12 -89 -1 -195 26 -248 19 -37
103 -132 117 -132 7 0 31 -21 102 -91 69 -67 461 -339 483 -335 4 1 15 -6 25
-15 11 -9 69 -46 129 -83 61 -37 117 -71 125 -76 29 -18 125 -74 147 -86 64
-35 88 -50 93 -55 5 -5 133 -78 245 -139 28 -15 70 -38 95 -52 299 -168 649
-332 790 -372 47 -13 124 -22 140 -16 3 1 12 3 20 5 46 9 175 117 292 245 111
121 416 560 390 560 -4 0 -2 4 4 8 11 7 58 90 59 104 0 4 6 13 13 20 6 6 12
18 12 26 0 8 6 26 14 40 32 60 52 117 73 207 2 11 6 56 7 100 4 124 -27 207
-111 291 -29 30 -53 51 -53 47 0 -5 -6 -1 -13 8 -23 29 -228 185 -364 276 -10
7 -51 35 -91 63 -41 27 -76 50 -78 50 -3 0 -10 5 -17 10 -22 19 -261 172 -284
183 -13 6 -23 14 -23 19 0 4 -4 8 -9 8 -9 0 -207 121 -228 139 -7 6 -14 11
-17 11 -5 0 -103 59 -262 158 -29 17 -56 32 -59 32 -4 0 -19 8 -33 19 -24 16
-46 30 -127 75 -11 7 -47 27 -80 46 -33 19 -73 43 -90 52 -16 10 -75 40 -130
67 -179 87 -297 111 -422 85z"/>
<path d="M4674 7045 c-2 -5 -5 -68 -6 -139 l-3 -129 -142 0 -143 0 0 -46 c-1
-25 -3 -103 -5 -173 l-4 -128 67 -1 c37 0 104 0 148 0 l82 1 0 -149 1 -150
-42 -24 c-119 -70 -218 -213 -234 -336 -6 -49 -6 -166 0 -191 17 -67 58 -147
99 -191 75 -82 87 -109 66 -144 -3 -5 -9 -25 -13 -44 l-7 -33 -68 6 c-66 7
-86 10 -156 21 -17 3 -56 8 -85 11 -30 3 -57 8 -61 10 -3 2 -27 7 -51 9 -25 3
-56 8 -68 11 -13 3 -42 10 -64 14 -122 25 -336 76 -415 100 -36 11 -119 35
-185 55 -66 20 -127 37 -135 40 -8 2 -49 12 -90 23 -41 11 -92 23 -114 26 -21
4 -41 8 -45 10 -6 4 -98 16 -166 22 -53 5 -272 5 -310 0 -16 -3 -52 -7 -80
-11 -27 -3 -59 -9 -70 -12 -26 -9 -45 -13 -70 -17 -40 -7 -182 -67 -245 -103
-100 -59 -200 -163 -243 -254 -59 -123 -72 -201 -72 -424 0 -201 6 -251 48
-420 1 -5 5 -14 8 -20 4 -5 12 -28 19 -50 21 -67 112 -242 203 -394 48 -79 87
-147 87 -151 0 -5 4 -10 8 -12 5 -1 30 -43 57 -93 26 -49 51 -94 55 -100 5 -5
9 -13 9 -18 0 -4 8 -21 16 -37 8 -16 15 -31 14 -32 0 -2 5 -16 11 -33 7 -16
16 -39 21 -50 33 -82 103 -330 114 -408 2 -12 6 -33 10 -47 3 -14 8 -47 10
-75 2 -27 5 -50 5 -50 5 0 19 -135 25 -225 3 -62 4 -62 16 -54 6 3 181 8 388
10 889 9 1295 13 1761 19 272 3 689 8 925 10 237 2 432 5 435 6 3 0 32 0 65 0
33 -1 65 -1 70 -1 6 0 217 2 470 6 253 3 480 6 504 7 51 2 46 -11 56 157 7
126 12 192 15 200 1 3 3 16 5 30 1 14 3 27 4 30 2 3 4 16 5 30 6 57 18 116 26
125 5 6 9 13 9 18 1 4 1 8 2 10 0 1 2 9 4 17 5 29 118 260 127 260 4 0 8 5 8
12 0 14 79 150 93 159 5 3 8 9 8 13 -1 3 14 31 34 61 32 51 154 280 154 290 0
3 10 27 21 53 26 58 87 241 101 302 14 61 18 80 24 115 3 17 8 37 10 45 7 24
15 130 15 205 1 103 -9 201 -30 290 -7 28 -13 57 -15 65 -2 8 -4 15 -5 15 -1
0 -3 7 -5 15 -8 42 -70 184 -103 238 -88 147 -195 218 -399 265 -74 17 -296
12 -373 -8 -14 -4 -76 -14 -130 -21 -25 -3 -39 -5 -135 -24 -52 -11 -79 -16
-117 -25 -13 -3 -36 -8 -53 -10 -34 -6 -132 -33 -155 -42 -8 -3 -17 -7 -20 -8
-59 -18 -121 -36 -125 -35 -3 0 -19 -7 -35 -15 -17 -9 -30 -14 -30 -11 0 2
-24 -2 -52 -10 -75 -20 -306 -72 -353 -78 -23 -4 -52 -9 -65 -11 -14 -3 -45
-8 -70 -11 -25 -3 -52 -7 -60 -9 -8 -3 -44 -7 -80 -11 -36 -3 -78 -7 -95 -9
-16 -2 -77 -7 -135 -10 -58 -4 -108 -9 -112 -12 -5 -2 -8 2 -9 9 0 7 -3 38 -5
70 l-4 56 58 59 c75 76 115 158 129 268 12 90 7 176 -13 245 -9 31 -53 110
-70 127 -7 7 -21 23 -31 35 -21 26 -59 54 -120 88 -45 25 -54 42 -42 77 5 12
4 25 -1 28 -5 3 -5 18 0 35 5 17 6 30 2 30 -8 0 -8 52 0 66 3 5 2 18 -2 28 -8
23 -2 64 11 72 5 3 9 1 9 -3 0 -8 84 -8 125 0 11 3 28 0 37 -4 10 -5 27 -5 41
0 13 5 29 6 36 1 7 -4 21 -6 30 -3 15 4 17 22 17 168 0 108 -3 165 -10 168 -6
2 -71 3 -143 3 -81 -1 -134 3 -136 9 -2 6 -2 67 -2 138 1 70 -1 128 -4 128
-34 7 -294 2 -297 -6z"/>
<path d="M3590 6518 c-19 -11 -36 -24 -38 -29 -2 -5 -7 -9 -12 -9 -12 0 -134
-81 -138 -92 -2 -4 -8 -8 -13 -8 -9 0 -269 -169 -279 -181 -3 -3 -10 -8 -15
-10 -31 -12 -265 -174 -265 -183 0 -6 19 -38 42 -71 82 -119 246 -238 458
-334 41 -18 83 -37 92 -42 16 -8 113 -43 203 -74 72 -24 309 -91 360 -101 22
-4 57 -11 95 -20 14 -3 40 -8 58 -11 l33 -5 -23 49 c-13 26 -26 50 -29 53 -16
14 -282 566 -356 740 -8 19 -22 51 -31 70 -8 19 -17 41 -18 48 -1 7 -12 33
-23 58 -12 24 -21 48 -21 52 0 5 -10 34 -23 65 l-23 56 -34 -21z"/>
<path d="M5980 6408 c-24 -97 -74 -249 -109 -331 -11 -26 -20 -48 -19 -50 1
-5 -135 -263 -153 -289 -11 -14 -19 -29 -19 -32 0 -5 -31 -54 -64 -101 -103
-146 -153 -212 -168 -223 -28 -21 -22 -34 15 -28 72 12 105 18 167 32 36 9 74
17 85 19 11 1 58 13 104 25 47 12 90 23 95 25 6 1 18 4 26 7 8 4 62 22 120 42
58 19 121 41 140 48 38 14 252 120 285 140 162 103 242 174 310 273 22 33 24
65 4 65 -4 0 -90 50 -191 112 -101 61 -214 130 -251 152 -38 23 -81 49 -95 58
-15 10 -34 21 -42 25 -8 4 -38 22 -67 40 -29 18 -55 33 -59 33 -4 0 -17 8 -28
19 -12 10 -31 22 -42 25 -20 6 -23 0 -44 -86z"/>
<path d="M2487 2130 c-10 -4 -13 -49 -11 -191 1 -103 4 -190 7 -195 3 -5 1013
-9 2338 -9 l2334 1 0 192 c0 106 -2 196 -5 200 -6 8 -4643 10 -4663 2z"/>
<path d="M2870 1387 c-71 -95 -143 -192 -162 -217 -18 -25 -37 -49 -41 -55
-60 -76 -317 -427 -317 -432 0 -7 15 -18 90 -63 14 -8 58 -37 98 -63 40 -26
77 -47 82 -47 6 0 10 -4 10 -8 0 -5 12 -15 28 -23 15 -7 41 -24 58 -36 17 -13
36 -23 42 -23 6 0 12 -4 14 -8 2 -4 21 -19 43 -32 56 -34 202 -127 252 -161
23 -16 46 -29 51 -29 6 0 12 -3 14 -8 2 -4 33 -26 69 -49 l67 -41 28 35 c27
34 51 74 100 168 15 28 29 52 33 55 3 3 16 25 29 50 72 141 108 206 117 212 6
4 6 8 1 8 -5 0 -4 6 2 13 16 19 447 865 465 910 5 12 -69 15 -519 15 l-525 0
-129 -171z"/>
<path d="M5590 1554 c0 -6 24 -48 30 -54 3 -3 17 -27 31 -55 15 -27 50 -95 79
-150 30 -55 178 -349 330 -653 l276 -552 39 29 c22 17 43 31 48 31 4 0 68 40
143 90 75 49 140 90 145 90 5 0 9 5 9 10 0 6 6 10 13 10 8 0 27 11 43 25 16
14 32 25 36 25 4 0 33 17 65 39 82 55 222 144 261 166 17 11 32 22 32 26 0 3
11 11 25 17 24 11 34 36 18 44 -9 3 -104 146 -151 224 -16 27 -66 109 -111
183 -44 74 -81 136 -81 137 0 2 -18 33 -40 69 -22 36 -40 70 -40 75 0 6 -5 10
-12 10 -6 0 -8 3 -5 7 4 3 1 13 -7 22 -7 9 -28 44 -46 77 l-33 62 -548 0
c-302 0 -549 -2 -549 -4z"/>
</g>
</svg>
